<?xml version="1.0" standalone="yes"?>
<!DOCTYPE svg PUBLIC "-//W3C//DTD SVG 1.1//EN"
 "http://www.w3.org/Graphics/SVG/1.1/DTD/svg11.dtd">
<svg xmlns="http://www.w3.org/2000/svg" version="1.1"
  width="100%" height="100%" viewBox="0 0 1024 768"
  style="fill: none; font-family: Helvetica;
 font: Helvetica;
">

<!-- Creator: NGspice -->

<rect x="0" y="0" width="1024" height="768" fill="black" stroke="none"/>
<text stroke="none" fill="white" font-size="16" x="358" y="752">
time
</text>
<text stroke="none" fill="white" font-size="16" x="10" y="16">
tran1: * spice3 file created from nor.ext - technology: scmos
</text>
<path stroke="white" d="M50 720l0 -672"/>
<text stroke="none" fill="white" font-size="16" x="35" y="728">
0.0
</text>
<path stroke="white" stroke-dasharray="1,2" d="M142 720l0 -672"/>
<text stroke="none" fill="white" font-size="16" x="122" y="728">
50.0
</text>
<path stroke="white" stroke-dasharray="1,2" d="M234 720l0 -672"/>
<text stroke="none" fill="white" font-size="16" x="209" y="728">
100.0
</text>
<path stroke="white" stroke-dasharray="1,2" d="M326 720l0 -672"/>
<text stroke="none" fill="white" font-size="16" x="301" y="728">
150.0
</text>
<path stroke="white" stroke-dasharray="1,2" d="M418 720l0 -672"/>
<text stroke="none" fill="white" font-size="16" x="393" y="728">
200.0
</text>
<path stroke="white" stroke-dasharray="1,2" d="M510 720l0 -672"/>
<text stroke="none" fill="white" font-size="16" x="485" y="728">
250.0
</text>
<path stroke="white" stroke-dasharray="1,2" d="M602 720l0 -672"/>
<text stroke="none" fill="white" font-size="16" x="577" y="728">
300.0
</text>
<path stroke="white" stroke-dasharray="1,2" d="M694 720l0 -672"/>
<text stroke="none" fill="white" font-size="16" x="669" y="728">
350.0
</text>
<path stroke="white" stroke-dasharray="1,2" d="M786 720l0 -672"/>
<text stroke="none" fill="white" font-size="16" x="761" y="728">
400.0
</text>
<path stroke="white" stroke-dasharray="1,2" d="M878 720l0 -672"/>
<text stroke="none" fill="white" font-size="16" x="853" y="728">
450.0
</text>
<path stroke="white" stroke-dasharray="1,2" d="M970 720l0 -672"/>
<text stroke="none" fill="white" font-size="16" x="945" y="728">
500.0
</text>
<text stroke="none" fill="white" font-size="16" x="614" y="752">
ns
</text>
<path stroke="white" stroke-dasharray="1,2" d="M50 720l920 0"/>
<text stroke="none" fill="white" font-size="16" x="8" y="728">
-0.5
</text>
<path stroke="white" d="M50 624l920 0"/>
<text stroke="none" fill="white" font-size="16" x="18" y="632">
0.0
</text>
<path stroke="white" stroke-dasharray="1,2" d="M50 528l920 0"/>
<text stroke="none" fill="white" font-size="16" x="18" y="536">
0.5
</text>
<path stroke="white" stroke-dasharray="1,2" d="M50 432l920 0"/>
<text stroke="none" fill="white" font-size="16" x="18" y="440">
1.0
</text>
<path stroke="white" stroke-dasharray="1,2" d="M50 336l920 0"/>
<text stroke="none" fill="white" font-size="16" x="18" y="344">
1.5
</text>
<path stroke="white" stroke-dasharray="1,2" d="M50 240l920 0"/>
<text stroke="none" fill="white" font-size="16" x="18" y="248">
2.0
</text>
<path stroke="white" stroke-dasharray="1,2" d="M50 144l920 0"/>
<text stroke="none" fill="white" font-size="16" x="18" y="152">
2.5
</text>
<path stroke="white" stroke-dasharray="1,2" d="M50 48l920 0"/>
<text stroke="none" fill="white" font-size="16" x="18" y="56">
3.0
</text>
<text stroke="none" fill="white" font-size="16" x="10" y="32">
V
</text>
<path stroke="red" d="M460 23l46 0"/>
<text stroke="none" fill="white" font-size="16" x="516" y="32">
v(input1)
</text>
<path stroke="red" d="M50 624l0 -1 0 -1 0 -2 0 -4 1 -7 0 -16 1 -30 2 -48 2 -48 2 -48 2 -48 2 -48 1 -48 2 -48 2 -48 1 -35 1 0 1 0 1 0 2 0 2 0 2 0 2 0 1 0 2 0 2 0 2 0 2 0 2 0 1 0 2 0 2 0 2 0 2 0 2 0 1 0 2 0 1 0 1 0 2 0 2 0 2 0 1 0 2 0 2 0 2 0 2 0"/>
<path stroke="red" d="M121 144l2 0 1 0 1 0 1 0 2 0 2 0 2 0 2 0 2 0 1 0 2 0 2 0 1 0 0 5 1 9 0 20 2 38 2 48 1 48 2 48 2 48 2 48 2 48 2 48 1 48 1 24 1 0 1 0 1 0 2 0 2 0 2 0 2 0 1 0 2 0 2 0 2 0 1 0 1 0 2 0 1 0 2 0 2 0 2 0 2 0 2 0 1 0 2 0 1 0 0 -5"/>
<path stroke="red" d="M197 619l1 -9 0 -20 2 -38 2 -48 2 -48 1 -48 2 -48 2 -48 2 -48 2 -48 2 -48 1 -24 1 0 1 0 2 0 2 0 2 0 2 0 2 0 1 0 2 0 2 0 2 0 2 0 2 0 1 0 2 0 2 0 2 0 2 0 2 0 1 0 1 0 1 0 1 0 1 0 2 0 2 0 2 0 2 0 1 0 2 0 2 0 2 0 1 0 1 0 2 0"/>
<path stroke="red" d="M274 144l1 0 2 0 2 0 2 0 2 0 2 0 1 0 2 0 1 0 0 5 1 9 0 20 2 38 2 48 2 48 1 48 2 48 2 48 2 48 2 48 2 48 1 24 1 0 1 0 2 0 2 0 2 0 2 0 2 0 1 0 2 0 2 0 1 0 1 0 2 0 2 0 1 0 2 0 2 0 2 0 2 0 2 0 1 0 1 0 1 -5 0 -9 1 -20 1 -38 2 -48"/>
<path stroke="red" d="M349 504l2 -48 2 -48 2 -48 1 -48 2 -48 2 -48 2 -48 1 -24 1 0 2 0 1 0 2 0 2 0 2 0 2 0 2 0 1 0 2 0 2 0 2 0 2 0 2 0 1 0 2 0 2 0 2 0 2 0 2 0 1 0 1 0 1 0 2 0 2 0 2 0 2 0 2 0 1 0 2 0 2 0 1 0 1 0 2 0 2 0 1 0 2 0 2 0 2 0 2 0 2 0"/>
<path stroke="red" d="M434 144l1 0 1 0 1 5 0 9 1 20 1 38 2 48 2 48 2 48 2 48 1 48 2 48 2 48 2 48 1 24 1 0 2 0 1 0 2 0 2 0 2 0 2 0 2 0 1 0 2 0 1 0 1 0 2 0 2 0 2 0 1 0 2 0 2 0 2 0 2 0 2 0 1 0 0 -5 0 -9 1 -20 1 -38 2 -48 2 -48 2 -48 2 -48 2 -48"/>
<path stroke="red" d="M504 312l1 -48 2 -48 2 -48 1 -24 1 0 2 0 2 0 1 0 2 0 2 0 2 0 2 0 2 0 1 0 2 0 2 0 2 0 2 0 2 0 2 0 1 0 2 0 2 0 2 0 1 0 1 0 2 0 1 0 2 0 2 0 2 0 2 0 2 0 1 0 2 0 1 0 1 0 2 0 2 0 2 0 1 0 2 0 2 0 2 0 2 0 2 0 1 0 0 5 0 9 1 20 1 38"/>
<path stroke="red" d="M586 216l2 48 2 48 2 48 2 48 2 48 1 48 2 48 2 48 1 24 1 0 2 0 2 0 1 0 2 0 2 0 2 0 2 0 2 0 1 0 1 0 1 0 1 0 1 0 2 0 2 0 2 0 2 0 1 0 2 0 2 0 2 0 1 0 0 -5 0 -9 1 -20 2 -38 1 -48 2 -48 2 -48 2 -48 2 -48 2 -48 1 -48 2 -48 1 -24"/>
<path stroke="red" d="M657 144l1 0 2 0 2 0 2 0 1 0 2 0 2 0 2 0 2 0 2 0 2 0 1 0 2 0 2 0 2 0 2 0 2 0 1 0 2 0 2 0 1 0 1 0 2 0 2 0 1 0 2 0 2 0 2 0 2 0 2 0 1 0 1 0 1 0 1 0 1 0 2 0 2 0 2 0 2 0 1 0 2 0 2 0 2 0 1 0 0 5 0 9 1 20 2 38 1 48 2 48 2 48 2 48"/>
<path stroke="red" d="M741 408l2 48 2 48 1 48 2 48 1 24 1 0 2 0 2 0 2 0 1 0 2 0 2 0 2 0 2 0 2 0 1 0 1 0 1 0 2 0 2 0 2 0 2 0 2 0 1 0 2 0 2 0 1 0 0 -5 1 -9 0 -20 2 -38 2 -48 1 -48 2 -48 2 -48 2 -48 2 -48 2 -48 1 -48 1 -24 1 0 1 0 1 0 2 0 2 0 2 0"/>
<path stroke="red" d="M813 144l2 0 1 0 2 0 2 0 2 0 2 0 2 0 1 0 2 0 2 0 2 0 2 0 2 0 1 0 2 0 1 0 1 0 2 0 2 0 2 0 1 0 2 0 2 0 2 0 2 0 2 0 1 0 1 0 1 0 2 0 2 0 2 0 2 0 2 0 1 0 2 0 2 0 1 0 0 5 1 9 0 20 2 38 2 48 1 48 2 48 2 48 2 48 2 48 2 48 1 48 1 24"/>
<path stroke="red" d="M896 624l1 0 1 0 1 0 2 0 2 0 2 0 2 0 1 0 2 0 2 0 2 0 1 0 1 0 2 0 1 0 2 0 2 0 2 0 2 0 2 0 1 0 2 0 1 0 0 -5 1 -9 0 -20 2 -38 2 -48 2 -48 1 -48 2 -48 2 -48 2 -48 2 -48 2 -48 1 -24 1 0 1 0 2 0 2 0 2 0 2 0 2 0 1 0 2 0 2 0 1 0"/>
<path stroke="blue" d="M50 23l46 0"/>
<text stroke="none" fill="white" font-size="16" x="106" y="32">
v(input2)
</text>
<path stroke="blue" d="M50 624l0 -1 0 -1 0 -2 0 -4 1 -7 0 -16 1 -30 2 -48 2 -48 2 -48 2 -48 2 -48 1 -48 2 -48 2 -48 1 -35 1 0 1 0 1 0 2 0 2 0 2 0 2 0 1 0 2 0 2 0 2 0 2 0 2 0 1 0 2 0 2 0 2 0 2 0 2 0 1 0 2 0 1 0 0 5 1 9 0 20 2 38 2 48 2 48 1 48"/>
<path stroke="blue" d="M113 360l2 48 2 48 2 48 2 48 2 48 1 24 0 -5 0 -9 1 -20 1 -38 2 -48 2 -48 2 -48 2 -48 2 -48 1 -48 2 -48 2 -48 1 -24 1 0 2 0 2 0 1 0 2 0 2 0 2 0 2 0 2 0 1 0 1 0 1 0 1 0 1 0 2 0 2 0 2 0 2 0 1 0 2 0 2 0 2 0 1 0 0 5 0 9 1 20"/>
<path stroke="blue" d="M180 178l2 38 1 48 2 48 2 48 2 48 2 48 2 48 1 48 2 48 1 24 0 -5 1 -9 0 -20 2 -38 2 -48 2 -48 1 -48 2 -48 2 -48 2 -48 2 -48 2 -48 1 -24 1 0 1 0 2 0 2 0 2 0 2 0 2 0 1 0 2 0 2 0 2 0 2 0 2 0 1 0 2 0 2 0 2 0 2 0 2 0 1 0 1 0"/>
<path stroke="blue" d="M252 144l1 5 0 9 1 20 1 38 2 48 2 48 2 48 2 48 1 48 2 48 2 48 2 48 1 24 0 -5 0 -9 1 -20 2 -38 1 -48 2 -48 2 -48 2 -48 2 -48 2 -48 1 -48 2 -48 1 -24 1 0 2 0 2 0 2 0 1 0 2 0 2 0 2 0 2 0 2 0 1 0 1 0 1 0 2 0 2 0 2 0 2 0 2 0"/>
<path stroke="blue" d="M320 144l1 0 2 0 2 0 1 0 0 5 1 9 0 20 2 38 2 48 1 48 2 48 2 48 2 48 2 48 2 48 1 48 1 24 1 -5 0 -9 1 -20 1 -38 2 -48 2 -48 2 -48 2 -48 1 -48 2 -48 2 -48 2 -48 1 -24 1 0 2 0 1 0 2 0 2 0 2 0 2 0 2 0 1 0 2 0 2 0 2 0 2 0 2 0"/>
<path stroke="blue" d="M388 144l1 0 2 0 2 0 2 0 2 0 2 0 1 0 0 5 0 9 1 20 1 38 2 48 2 48 2 48 2 48 2 48 1 48 2 48 2 48 1 24 0 -5 1 -9 0 -20 2 -38 2 -48 1 -48 2 -48 2 -48 2 -48 2 -48 2 -48 1 -48 1 -24 1 0 1 0 1 0 2 0 2 0 2 0 2 0 1 0 2 0 2 0 2 0"/>
<path stroke="blue" d="M454 144l1 0 1 0 2 0 1 0 2 0 2 0 2 0 2 0 2 0 1 0 2 0 1 0 0 5 1 9 0 20 2 38 2 48 2 48 1 48 2 48 2 48 2 48 2 48 2 48 1 24 0 -5 0 -9 1 -20 1 -38 2 -48 2 -48 2 -48 2 -48 2 -48 1 -48 2 -48 2 -48 1 -24 1 0 2 0 2 0 1 0 2 0 2 0"/>
<path stroke="blue" d="M520 144l2 0 2 0 2 0 1 0 2 0 2 0 2 0 2 0 2 0 2 0 1 0 2 0 2 0 2 0 1 0 0 5 0 9 1 20 2 38 1 48 2 48 2 48 2 48 2 48 2 48 1 48 2 48 1 24 0 -5 1 -9 0 -20 2 -38 2 -48 2 -48 1 -48 2 -48 2 -48 2 -48 2 -48 2 -48 1 -24 1 0 1 0 2 0"/>
<path stroke="blue" d="M588 144l2 0 2 0 2 0 2 0 1 0 2 0 2 0 1 0 1 0 2 0 2 0 1 0 2 0 2 0 2 0 2 0 2 0 1 0 1 0 1 5 0 9 1 20 1 38 2 48 2 48 2 48 2 48 1 48 2 48 2 48 2 48 1 24 0 -5 0 -9 1 -20 2 -38 1 -48 2 -48 2 -48 2 -48 2 -48 2 -48 1 -48 2 -48 1 -24"/>
<path stroke="blue" d="M657 144l1 0 2 0 2 0 2 0 1 0 2 0 2 0 2 0 2 0 2 0 2 0 1 0 2 0 2 0 2 0 2 0 2 0 1 0 2 0 2 0 1 0 0 5 1 9 0 20 2 38 2 48 1 48 2 48 2 48 2 48 2 48 2 48 1 48 1 24 1 -5 0 -9 1 -20 1 -38 2 -48 2 -48 2 -48 2 -48 1 -48 2 -48 2 -48"/>
<path stroke="blue" d="M728 216l2 -48 1 -24 1 0 2 0 1 0 2 0 2 0 2 0 2 0 2 0 1 0 2 0 1 0 1 0 2 0 2 0 2 0 1 0 2 0 2 0 2 0 2 0 2 0 1 0 0 5 0 9 1 20 1 38 2 48 2 48 2 48 2 48 2 48 1 48 2 48 2 48 1 24 0 -5 1 -9 0 -20 2 -38 2 -48 1 -48 2 -48 2 -48 2 -48"/>
<path stroke="blue" d="M798 312l2 -48 2 -48 1 -48 1 -24 1 0 1 0 1 0 2 0 2 0 2 0 2 0 1 0 2 0 2 0 2 0 2 0 2 0 1 0 2 0 2 0 2 0 2 0 2 0 1 0 2 0 1 0 0 5 1 9 0 20 2 38 2 48 2 48 1 48 2 48 2 48 2 48 2 48 2 48 1 24 0 -5 0 -9 1 -20 1 -38 2 -48 2 -48 2 -48"/>
<path stroke="blue" d="M868 408l2 -48 2 -48 1 -48 2 -48 2 -48 1 -24 1 0 2 0 2 0 1 0 2 0 2 0 2 0 2 0 2 0 1 0 1 0 1 0 1 0 1 0 2 0 2 0 2 0 2 0 1 0 2 0 2 0 2 0 1 0 0 5 0 9 1 20 2 38 1 48 2 48 2 48 2 48 2 48 2 48 1 48 2 48 1 24 0 -5 1 -9 0 -20 2 -38"/>
<path stroke="blue" d="M936 552l2 -48 2 -48 1 -48 2 -48 2 -48 2 -48 2 -48 2 -48 1 -24 1 0 1 0 2 0 2 0 2 0 2 0 2 0 1 0 2 0 2 0 1 0"/>
<path stroke="#FFA500" d="M460 39l46 0"/>
<text stroke="none" fill="white" font-size="16" x="516" y="48">
v(output)
</text>
<path stroke="#FFA500" d="M50 144l1 0 0 2 1 7 2 24 2 54 2 233 2 106 2 24 1 19 2 5 2 7 1 -2 1 1 1 0 1 0 2 0 2 0 2 0 2 0 1 0 2 0 2 0 2 0 2 0 2 0 1 0 2 0 2 0 2 0 2 0 2 0 1 0 2 0 1 0 1 0 2 0 2 0 2 0 1 0 2 0 2 0 2 0 2 0 2 0 1 0 1 0 1 0 2 0 2 0 2 0"/>
<path stroke="#FFA500" d="M132 624l2 0 2 0 1 0 2 0 2 0 1 0 1 0 2 0 2 0 1 0 2 0 2 0 2 0 2 0 2 0 1 0 1 0 1 0 1 0 1 0 2 0 2 0 2 0 2 0 1 0 2 0 2 0 2 0 1 0 1 -2 2 -9 1 -22 2 -43 2 -108 2 -209 2 -50 2 -16 1 -17 2 -1 1 -5 0 2 1 0 0 2 2 11 2 28 2 66"/>
<path stroke="#FFA500" d="M204 251l1 253 2 75 2 18 2 19 2 3 2 6 1 -3 0 2 1 0 1 0 2 0 2 0 2 0 2 0 2 0 1 0 2 0 2 0 2 0 2 0 2 0 1 0 2 0 2 0 2 0 2 0 2 0 1 0 1 0 1 0 1 0 1 0 2 0 2 0 2 0 2 0 1 0 2 0 2 0 2 0 1 0 1 0 2 0 1 0 2 0 2 0 2 0 2 0 2 0 1 0 2 0"/>
<path stroke="#FFA500" d="M288 624l1 0 1 0 2 0 2 0 2 0 1 0 2 0 2 0 2 0 2 0 2 0 1 0 1 0 1 0 2 0 2 0 2 0 2 0 2 0 1 0 2 0 2 0 1 0 1 0 0 -2 2 -9 2 -22 1 -43 2 -108 2 -209 2 -50 2 -16 2 -17 1 -1 1 -5 1 2 1 2 1 11 2 28 2 66 2 253 2 75 1 18 2 19 2 3"/>
<path stroke="#FFA500" d="M360 619l2 6 1 -3 0 2 1 0 2 0 1 0 2 0 2 0 2 0 2 0 2 0 1 0 2 0 2 0 2 0 2 0 2 0 1 0 2 0 2 0 2 0 2 0 2 0 1 0 1 0 1 0 2 0 2 0 2 0 2 0 2 0 1 0 2 0 2 0 1 0 1 0 2 0 2 0 1 0 2 0 2 0 2 0 2 0 2 0 1 0 1 0 1 0 1 0 1 0 2 0 2 0 2 0"/>
<path stroke="#FFA500" d="M445 624l2 0 1 0 2 0 2 0 2 0 1 0 1 0 2 0 1 0 2 0 2 0 2 0 2 0 2 0 1 0 2 0 1 0 1 0 0 -2 2 -9 2 -22 2 -43 1 -108 2 -209 2 -50 2 -16 2 -17 2 -1 1 -5 0 2 1 2 1 11 2 28 2 66 2 253 2 75 2 18 1 19 2 3 2 6 1 -3 0 2 1 0 2 0 2 0"/>
<path stroke="#FFA500" d="M515 624l1 0 2 0 2 0 2 0 2 0 2 0 1 0 2 0 2 0 2 0 2 0 2 0 2 0 1 0 2 0 2 0 2 0 1 0 1 0 2 0 1 0 2 0 2 0 2 0 2 0 2 0 1 0 2 0 1 0 1 0 2 0 2 0 2 0 1 0 2 0 2 0 2 0 2 0 2 0 1 0 1 0 1 0 2 0 2 0 2 0 2 0 2 0 1 0 2 0 2 0 1 0 1 0"/>
<path stroke="#FFA500" d="M603 624l2 0 2 0 1 0 2 0 2 0 2 0 2 0 2 0 1 0 1 0 1 0 1 -2 1 -9 2 -22 2 -43 2 -108 2 -209 1 -50 2 -16 2 -17 2 -1 1 -5 0 2 1 2 2 11 1 28 2 66 2 253 2 75 2 18 2 19 1 3 2 6 1 -3 0 2 1 0 2 0 2 0 2 0 1 0 2 0 2 0 2 0 2 0 2 0"/>
<path stroke="#FFA500" d="M675 624l2 0 1 0 2 0 2 0 2 0 2 0 2 0 1 0 2 0 2 0 1 0 1 0 2 0 2 0 1 0 2 0 2 0 2 0 2 0 2 0 1 0 1 0 1 0 1 0 1 0 2 0 2 0 2 0 2 0 1 0 2 0 2 0 2 0 1 0 1 0 2 0 1 0 2 0 2 0 2 0 2 0 2 0 1 0 2 0 1 0 1 0 2 0 2 0 2 0 1 0 2 0 2 0"/>
<path stroke="#FFA500" d="M761 624l2 0 2 0 2 0 1 0 1 -2 1 -9 2 -22 2 -43 2 -108 2 -209 2 -50 1 -16 2 -17 2 -1 1 -5 0 2 1 0 0 2 2 11 2 28 1 66 2 253 2 75 2 18 2 19 2 3 1 6 1 -3 1 2 1 0 1 0 2 0 2 0 2 0 2 0 1 0 2 0 2 0 2 0 2 0 2 0 1 0 2 0 2 0 2 0"/>
<path stroke="#FFA500" d="M833 624l2 0 2 0 1 0 2 0 1 0 1 0 2 0 2 0 2 0 1 0 2 0 2 0 2 0 2 0 2 0 1 0 1 0 1 0 2 0 2 0 2 0 2 0 2 0 1 0 2 0 2 0 1 0 1 0 2 0 2 0 1 0 2 0 2 0 2 0 2 0 2 0 1 0 1 0 1 0 1 0 1 0 2 0 2 0 2 0 2 0 1 0 2 0 2 0 2 0 1 0 1 -2 2 -9"/>
<path stroke="#FFA500" d="M918 613l1 -22 2 -43 2 -108 2 -209 2 -50 2 -16 1 -17 2 -1 1 -5 0 2 1 0 0 2 2 11 2 28 2 66 1 253 2 75 2 18 2 19 2 3 2 6 1 -3 0 2 1 0 1 0 2 0 2 0 2 0 2 0 2 0 1 0 2 0 2 0 1 0"/>
</svg>
